<?xml version="1.0" encoding="utf-8"?>
<!-- Generator: Adobe Illustrator 17.0.2, SVG Export Plug-In . SVG Version: 6.00 Build 0)  -->
<!DOCTYPE svg PUBLIC "-//W3C//DTD SVG 1.1//EN" "http://www.w3.org/Graphics/SVG/1.1/DTD/svg11.dtd">
<svg version="1.1" id="Layer_1" xmlns="http://www.w3.org/2000/svg" xmlns:xlink="http://www.w3.org/1999/xlink" x="0px" y="0px"
	 width="500px" height="500px" viewBox="0 0 500 500" enable-background="new 0 0 500 500" xml:space="preserve">
<circle fill="#666666" cx="250" cy="250" r="250"/>
<path id="Facebook" fill="#FFFFFF" d="M192.834,135.74c0,9.351,0,51.099,0,51.099H155.4v62.485h37.434V435h76.905V249.324h51.6
	c0,0,4.832-29.96,7.174-62.721c-6.717,0-58.486,0-58.486,0s0-36.353,0-42.722c0-6.383,8.385-14.973,16.674-14.973
	c8.272,0,25.73,0,41.899,0c0-8.509,0-37.904,0-65.051c-21.588,0-46.141,0-56.968,0C190.934,63.857,192.834,126.401,192.834,135.74z"
	/>
</svg>
