<?xml version="1.0" encoding="utf-8"?>
<!-- Generator: Adobe Illustrator 17.0.2, SVG Export Plug-In . SVG Version: 6.00 Build 0)  -->
<!DOCTYPE svg PUBLIC "-//W3C//DTD SVG 1.1//EN" "http://www.w3.org/Graphics/SVG/1.1/DTD/svg11.dtd">
<svg version="1.1" id="Layer_1" xmlns="http://www.w3.org/2000/svg" xmlns:xlink="http://www.w3.org/1999/xlink" x="0px" y="0px"
	 width="500px" height="500px" viewBox="0 0 500 500" enable-background="new 0 0 500 500" xml:space="preserve">
<circle fill="#666666" cx="250" cy="250" r="250"/>
<path fill="#FFFFFF" d="M408.5,335.953c0,31.782-23.22,57.547-51.864,57.547H154.364c-28.644,0-51.864-25.765-51.864-57.547V146.047
	c0-31.782,23.22-57.547,51.864-57.547h202.271c28.644,0,51.864,25.765,51.864,57.547V335.953z"/>
<polygon fill="#FFFFFF" points="261.5,216 261.5,216 260.5,216 260.5,216 260.5,216 260.5,216 261.5,216 261.5,216 "/>
<rect x="126.5" y="88.5" fill="#666666" width="13" height="74"/>
<rect x="149.5" y="88.5" fill="#666666" width="13" height="74"/>
<rect x="169.5" y="88.5" fill="#666666" width="13" height="74"/>
<path fill="#666666" d="M378.5,154.748c0,5.505-4.022,9.967-8.983,9.967h-35.034c-4.961,0-8.983-4.463-8.983-9.967v-32.892
	c0-5.505,4.022-9.967,8.983-9.967h35.034c4.961,0,8.983,4.463,8.983,9.967V154.748z"/>
<rect x="91.5" y="186.5" fill="#666666" width="323" height="11"/>
<circle fill="#666666" cx="253" cy="242.5" r="74.392"/>
<circle fill="#FFFFFF" cx="253.75" cy="242.5" r="57.838"/>
<circle fill="#666666" cx="254.5" cy="242.5" r="40.892"/>
</svg>
