<?xml version="1.0" encoding="utf-8"?>
<!-- Generator: Adobe Illustrator 17.0.2, SVG Export Plug-In . SVG Version: 6.00 Build 0)  -->
<!DOCTYPE svg PUBLIC "-//W3C//DTD SVG 1.1//EN" "http://www.w3.org/Graphics/SVG/1.1/DTD/svg11.dtd">
<svg version="1.1" id="Layer_1" xmlns="http://www.w3.org/2000/svg" xmlns:xlink="http://www.w3.org/1999/xlink" x="0px" y="0px"
	 width="500px" height="500px" viewBox="0 0 500 500" enable-background="new 0 0 500 500" xml:space="preserve">
<path fill="#D9A21D" d="M120.581,73.965c0,0-20.756-9.884-55.349,20.756c0,0-1.977-18.854-13.837-22.276
	c0,0-19.767,6.462-18.779,47.973c0,0-13.837-6.919-16.802-6.919c0,0-10.872,19.767,4.942,41.511c0,0-15.814-1.977-20.756,0
	c0,0,0.988,26.686,19.767,33.604c0,0-14.825-5.93-19.767,0c0,0,4.942,25.698,30.639,39.535c0,0-17.791-0.988-18.779,4.942
	c0,0,7.907,24.709,32.616,27.674c0,0-15.814,5.456-15.814,12.612c0,0,19.767,12.098,31.628,14.074c0,0-3.953,3.953-10.872,9.884
	c0,0,21.744,17.791,39.535,13.837c0,0,3.953,7.907-6.919,5.93c0,0,43.488,29.651,69.186-3.953c0,0-11.86-6.919-14.825-6.919
	c0,0,29.651-18.779-6.919-48.43c0,0-6.919,1.977-6.919,4.942s0-2.965,0-2.965s2.965-9.884-10.872-21.744c0,0-5.93,0.988-8.895,4.942
	c0,0-1.977-19.767-4.942-21.744c0,0-4.942-3.953-8.895-2.965c0,0,10.872-11.86,4.942-22.732c0,0-3.953-2.965-8.895-0.988
	c0,0,13.837-4.942,12.849-27.674c0,0-7.907-2.965-12.849-2.965c0,0,16.802-5.93,12.849-19.767c0,0,0.988-3.953-9.884-4.942
	c0,0,21.744-6.919,17.791-22.732c0,0,0-4.942-8.895-4.942C96.86,111.523,124.534,94.721,120.581,73.965z"/>
<path fill="#FFFFFF" d="M44.971,194.546c0,0,9.884-30.639-37.558-37.558C7.413,156.988,17.296,190.592,44.971,194.546z"/>
<path fill="#FFFFFF" d="M67.51,253.489c0,0-2.775-32.074-49.186-20.049C18.324,233.44,40.469,260.58,67.51,253.489z"/>
<path fill="#FFFFFF" d="M94.303,279.876c0,0-9.271-30.83-52.245-9.574C42.058,270.302,69.282,292.343,94.303,279.876z"/>
<path fill="#FFFFFF" d="M105.565,300.914c0,0-10.026-21.945-39.766-1.782C65.799,299.131,88.258,312.721,105.565,300.914z"/>
<path fill="#FFFFFF" d="M139.126,318.04c0,0-10.026-21.945-39.766-1.782C99.361,316.257,121.82,329.847,139.126,318.04z"/>
<path fill="#FFFFFF" d="M36.931,222.271c0,0,7.768-24.08-29.518-29.518C7.413,192.753,15.181,219.164,36.931,222.271z"/>
<path fill="#FFFFFF" d="M48.61,166.897c0,0,17.204-27.212-27.019-45.729C21.591,121.168,22.793,156.175,48.61,166.897z"/>
<path fill="#FFFFFF" d="M49.664,123.198c0,0,24.304-12.997-0.806-45.465C48.859,77.733,34.968,104.309,49.664,123.198z"/>
<path fill="#FFFFFF" d="M71.111,104.208c0,0,22.675,15.667,40.06-21.514C111.172,82.694,81.185,82.499,71.111,104.208z"/>
<path fill="#FFFFFF" d="M59.067,135.691c0,0,20.493,18.431,42.477-16.23C101.544,119.461,71.827,115.444,59.067,135.691z"/>
<path fill="#FFFFFF" d="M61.597,160.056c0,0,17.007,15.295,35.251-13.469C96.848,146.587,72.187,143.253,61.597,160.056z"/>
<path fill="#FFFFFF" d="M57.579,198.161c0,0,24.995,11.613,35.853-27.969C93.432,170.192,63.843,175.063,57.579,198.161z"/>
<path fill="#FFFFFF" d="M57.672,227.817c0,0,21.619,10.045,31.01-24.192C88.682,203.625,63.089,207.838,57.672,227.817z"/>
<path fill="#FFFFFF" d="M83.393,260.511c0,0,23.308-5.004,10.183-37.989C93.576,222.522,75.684,241.3,83.393,260.511z"/>
<path fill="#FFFFFF" d="M105.822,284.773c0,0,22.331-8.344,4.543-39.067C110.365,245.706,95.398,266.89,105.822,284.773z"/>
<path fill="#FFFFFF" d="M134.02,301.36c0,0,19.83-13.232-4.515-39.07C129.505,262.29,119.781,286.335,134.02,301.36z"/>
<path fill="#D9A21D" d="M378.544,73.965c0,0,20.756-9.884,55.349,20.756c0,0,1.977-18.854,13.837-22.276
	c0,0,19.767,6.462,18.779,47.973c0,0,13.837-6.919,16.802-6.919c0,0,10.872,19.767-4.942,41.511c0,0,15.814-1.977,20.756,0
	c0,0-0.988,26.686-19.767,33.604c0,0,14.826-5.93,19.767,0c0,0-4.942,25.698-30.639,39.535c0,0,17.791-0.988,18.779,4.942
	c0,0-7.907,24.709-32.616,27.674c0,0,15.814,5.456,15.814,12.612c0,0-19.767,12.098-31.628,14.074c0,0,3.953,3.953,10.872,9.884
	c0,0-21.744,17.791-39.535,13.837c0,0-3.953,7.907,6.919,5.93c0,0-43.488,29.651-69.186-3.953c0,0,11.86-6.919,14.826-6.919
	c0,0-29.651-18.779,6.919-48.43c0,0,6.919,1.977,6.919,4.942s0-2.965,0-2.965s-2.965-9.884,10.872-21.744
	c0,0,5.93,0.988,8.895,4.942c0,0,1.977-19.767,4.942-21.744c0,0,4.942-3.953,8.895-2.965c0,0-10.872-11.86-4.942-22.732
	c0,0,3.953-2.965,8.895-0.988c0,0-13.837-4.942-12.849-27.674c0,0,7.907-2.965,12.849-2.965c0,0-16.802-5.93-12.849-19.767
	c0,0-0.988-3.953,9.884-4.942c0,0-21.744-6.919-17.791-22.732c0,0,0-4.942,8.895-4.942
	C402.265,111.523,374.591,94.721,378.544,73.965z"/>
<path fill="#FFFFFF" d="M454.154,194.546c0,0-9.884-30.639,37.558-37.558C491.712,156.988,481.829,190.592,454.154,194.546z"/>
<path fill="#FFFFFF" d="M431.615,253.489c0,0,2.775-32.074,49.186-20.049C480.801,233.44,458.656,260.58,431.615,253.489z"/>
<path fill="#FFFFFF" d="M404.822,279.876c0,0,9.271-30.83,52.245-9.574C457.067,270.302,429.843,292.343,404.822,279.876z"/>
<path fill="#FFFFFF" d="M390.56,302.914c0,0,10.026-21.945,39.766-1.782C430.326,301.131,407.867,314.721,390.56,302.914z"/>
<path fill="#FFFFFF" d="M359.999,318.04c0,0,10.026-21.945,39.766-1.782C399.764,316.257,377.305,329.847,359.999,318.04z"/>
<path fill="#FFFFFF" d="M462.194,222.271c0,0-7.768-24.08,29.518-29.518C491.712,192.753,483.944,219.164,462.194,222.271z"/>
<path fill="#FFFFFF" d="M450.515,166.897c0,0-17.204-27.212,27.019-45.729C477.534,121.168,476.332,156.175,450.515,166.897z"/>
<path fill="#FFFFFF" d="M449.461,123.198c0,0-24.304-12.997,0.806-45.465C450.266,77.733,464.157,104.309,449.461,123.198z"/>
<path fill="#FFFFFF" d="M428.014,104.208c0,0-22.675,15.667-40.06-21.514C387.953,82.694,417.94,82.499,428.014,104.208z"/>
<path fill="#FFFFFF" d="M444.058,134.691c0,0-20.493,18.431-42.477-16.23C401.581,118.461,431.298,114.444,444.058,134.691z"/>
<path fill="#FFFFFF" d="M447.753,164.817c0,0-20.493,18.431-42.477-16.23C405.277,148.587,434.994,144.57,447.753,164.817z"/>
<path fill="#FFFFFF" d="M441.546,198.161c0,0-24.995,11.613-35.853-27.969C405.693,170.192,435.282,175.063,441.546,198.161z"/>
<path fill="#FFFFFF" d="M441.453,227.817c0,0-21.619,10.045-31.01-24.192C410.443,203.625,436.036,207.838,441.453,227.817z"/>
<path fill="#FFFFFF" d="M416.732,262.511c0,0-23.308-5.004-10.183-37.989C406.549,224.522,424.441,243.3,416.732,262.511z"/>
<path fill="#FFFFFF" d="M394.303,285.773c0,0-22.331-8.344-4.543-39.067C389.76,246.706,404.727,267.89,394.303,285.773z"/>
<path fill="#FFFFFF" d="M367.105,302.36c0,0-19.83-13.232,4.515-39.07C371.62,263.29,381.344,287.335,367.105,302.36z"/>
<polygon fill="#2F2A2C" stroke="#2F2A2C" stroke-miterlimit="10" points="164.563,242.706 128.264,159.953 128.264,170.192 "/>
<path fill="#2F2A2C" stroke="#2F2A2C" stroke-miterlimit="10" d="M173.458,175.767c0,0,19.767,41.511,19.767,71.162
	C193.226,246.929,169.505,190.592,173.458,175.767z"/>
<path fill="#2F2A2C" stroke="#2F2A2C" stroke-miterlimit="10" d="M222.877,184.971c0,0,8.895,38.688,3.953,57.736
	C226.83,242.706,217.935,209,222.877,184.971z"/>
<path fill="#2F2A2C" stroke="#2F2A2C" stroke-miterlimit="10" d="M310.841,184.971c0,0-15.814,51.086-29.651,61.958
	C281.19,246.929,299.969,185.279,310.841,184.971z"/>
<path fill="#2F2A2C" stroke="#2F2A2C" stroke-miterlimit="10" d="M343.457,184.971l-28.663,61.958c0,0,4.942,10.855-10.872,15.311
	l-82.541,0.587l-14.319-7.316h93.895c0,0,11.86-0.675,9.884-8.582L343.457,184.971z"/>
<path fill="#D9A21D" d="M228.325,41.349c0,0-14.343,4.942,5.424,8.895c0,0,51.395,6.919,29.651-16.802L253.397,28.5
	c0,0,47.323,9.884,0,28.663C253.397,57.163,203.252,54.198,228.325,41.349z"/>
<path fill="#D9A21D" d="M183.12,57.163c0,0-22.51,9.514-3.731,20.571c0,0,74.751,21.559,129.112,0c0,0,12-5.288-1.612-20.571
	c0,0,25.698,16.817-10.872,30.153c0,0-90.071,14.942-124.105-9.582C171.911,77.733,152.258,64.081,183.12,57.163z"/>
<path fill="#D9A21D" d="M158.633,107.484c0,0,53.742,43.095,157.335,13.683c0,0,35.396-4.047,27.489-38.474
	c0,0,2.965,39.223-53.372,38.474C290.086,121.168,206.094,132.275,158.633,107.484z"/>
<path fill="#D9A21D" d="M135.949,144.032c0,0,72.102,51.502,185.764,15.92c0,0,39.535-8.12,45.465-15.92
	c0,0,14.741-24.18-8.895-30.896c0,0,18.779,23.402-3.953,29.673C354.329,142.81,262.509,185.437,135.949,144.032z"/>
<path fill="#2F2A2C" d="M119.244,374.428l-17.7,23.721l132.205-40.523c0,0,14.825,14.826,28.663,0l117.47,40.523
	c0,0-2.473-20.756-24.391-27.674l-90.115-21.744l65.232-19.547l0.988-13.885l-71.162,24.536c0,0-18.779-3.953-23.721,3.953
	l-72.151-28.49l-5.93,7.563l69.692,23.892L119.244,374.428z"/>
<text transform="matrix(1 0 0 1 36.5 470.5)" fill="#2F2A2C" font-family="'AvantGarde-ExtraLight'" font-size="75">Milo’s Pastry</text>
</svg>
