<?xml version="1.0" encoding="utf-8"?>
<!-- Generator: Adobe Illustrator 17.0.2, SVG Export Plug-In . SVG Version: 6.00 Build 0)  -->
<!DOCTYPE svg PUBLIC "-//W3C//DTD SVG 1.1//EN" "http://www.w3.org/Graphics/SVG/1.1/DTD/svg11.dtd">
<svg version="1.1" id="Layer_1" xmlns="http://www.w3.org/2000/svg" xmlns:xlink="http://www.w3.org/1999/xlink" x="0px" y="0px"
	 width="500px" height="500px" viewBox="0 0 500 500" enable-background="new 0 0 500 500" xml:space="preserve">
<circle fill="#666666" cx="250" cy="250" r="250"/>
<path id="Twitter_2_" fill="#FFFFFF" d="M426.747,146.03c-12.528,5.551-25.985,9.309-40.115,10.999
	c14.419-8.644,25.492-22.335,30.709-38.646c-13.495,8.005-28.443,13.819-44.354,16.948c-12.739-13.569-30.893-22.054-50.98-22.054
	c-38.572,0-69.846,31.271-69.846,69.843c0,5.476,0.615,10.806,1.808,15.92c-58.048-2.912-109.517-30.72-143.964-72.975
	c-6.013,10.312-9.457,22.31-9.457,35.115c0,24.23,12.33,45.605,31.07,58.133c-11.447-0.363-22.218-3.503-31.632-8.737
	c-0.007,0.292-0.007,0.587-0.007,0.878c0,33.842,24.076,62.069,56.026,68.488c-5.86,1.593-12.032,2.454-18.402,2.454
	c-4.498,0-8.872-0.441-13.139-1.259c8.888,27.747,34.683,47.945,65.247,48.507c-23.905,18.733-54.022,29.902-86.743,29.902
	c-5.64,0-11.198-0.334-16.663-0.978c30.909,19.814,67.622,31.381,107.066,31.381c128.47,0,198.725-106.43,198.725-198.728
	c0-3.026-0.066-6.038-0.202-9.036C405.543,172.333,417.384,160.033,426.747,146.03z"/>
</svg>
